<?xml version="1.0" encoding="UTF-8"?>
<svg id="Capa_1" data-name="Capa 1" xmlns="http://www.w3.org/2000/svg" viewBox="0 0 512 512">
  <defs>
    <style>
      .cls-1 {
        fill: #fd5000;
      }
    </style>
  </defs>
  <path class="cls-1" d="M202.68,213l-18.69-177.29c-4.14-4.42-85.25,52.36-96.86,55.17-9.46,2.29-15.83-2.65-24.45-3.93,3.49-10.32,6.07-17.51,14.21-25.41C83.26,55.34,175.57.04,181.65-.02c4.93-.05,32.5,14.44,34.31,20.09l19.36,192.95,44.42-4.62c17.78-37.32,26.72-97.47,45.35-131.97,6.18-11.45,27.95-28.56,41.02-24.88,5.5,1.55,76.93,44.16,79.45,48.06,3.47,5.38,5.12,13.37,4.28,19.8-12.99,18.52-75.82-29-90.86-36.96l-48.97,130.55h139.99l-58.27,112.05-58.37,4.63,22.62,57.19-73.91,124.75c.66-8.08-22.01-50.76-27.98-46.65l-28.02,46.65-69.09-129.02,27.04-52.91-58.69-4.35-62.63-112.35h139.99Z"/>
</svg>