<?xml version="1.0" standalone="no"?>
<!-- Generator: Adobe Fireworks 10, Export SVG Extension by Aaron Beall (http://fireworks.abeall.com) . Version: 0.6.1  -->
<!DOCTYPE svg PUBLIC "-//W3C//DTD SVG 1.1//EN" "http://www.w3.org/Graphics/SVG/1.1/DTD/svg11.dtd">
<svg id="Untitled-P%E1gina%201" viewBox="0 0 133 73" style="background-color:#ffffff00" version="1.1"
	xmlns="http://www.w3.org/2000/svg" xmlns:xlink="http://www.w3.org/1999/xlink" xml:space="preserve"
	x="0px" y="0px" width="133px" height="73px"
>
	<g>
		<path d="M 12.6694 51.6563 L 12.6694 28.6416 L 43.0465 14.4492 L 42.8605 57.4102 L 12.6694 51.6563 Z" fill="#ec1d23"/>
		<path d="M 12.6694 51.6563 L 12.6694 28.6416 L 43.0465 14.4492 L 42.8605 57.4102 L 12.6694 51.6563 Z" stroke="#ec1b23" stroke-width="2" fill="none"/>
		<path d="M 0 26.5479 L 52.4996 0 L 63.5104 9.4492 L 58.7428 9.4492 L 52.0455 3.5996 L 6.2999 26.5479 L 0 26.5479 Z" fill="#25266c"/>
		<path d="M 46.6136 58.3037 L 46.6136 14.6514 L 52.4583 14.6514 L 52.4583 53.1826 L 74.1135 53.1826 L 74.1135 58.3037 L 46.6136 58.3037 Z" fill="#6f7070"/>
		<path d="M 65.1931 14.8018 L 81.3743 58.3037 L 87.943 58.3037 L 103.6436 20.1992 L 116.4604 20.1992 C 118.0807 20.6763 124.6926 18.8892 127.1942 25.5977 C 127.1942 25.5977 129.2773 34.1709 119.9848 35.4414 L 106.0465 35.4414 L 106.0465 40.0449 L 119.5043 40.0449 C 119.5043 40.0449 128.7964 40.0449 131.8404 33.8535 C 131.8404 33.8535 135.5253 24.9624 129.7577 18.2939 C 129.7577 18.2939 126.7137 14.4839 116.6204 14.8018 L 99.3178 14.8018 L 85.059 53.2227 L 70.9606 14.8018 L 65.1931 14.8018 Z" fill="#6f7070"/>
		<path d="M 10.8026 66.6025 C 10.8026 66.2627 10.7259 65.9756 10.5724 65.7407 C 10.4191 65.5059 10.162 65.3369 9.8013 65.2344 C 9.6884 65.2031 9.5609 65.1807 9.4188 65.1675 C 9.2768 65.1538 9.0908 65.1475 8.8609 65.1475 L 7.8795 65.1475 L 7.8795 68.0713 L 9.0164 68.0713 C 9.323 68.0713 9.588 68.0347 9.8114 67.9609 C 10.0348 67.8867 10.2207 67.7842 10.3695 67.6523 C 10.5183 67.5205 10.6278 67.3652 10.6977 67.1865 C 10.7675 67.0073 10.8026 66.8125 10.8026 66.6025 ZM 12.5551 72.7031 C 12.5551 72.7383 12.5484 72.77 12.5349 72.7969 C 12.5214 72.8237 12.492 72.8462 12.4469 72.8643 C 12.4019 72.8818 12.3388 72.8955 12.2576 72.9043 C 12.1764 72.9131 12.0682 72.9175 11.9329 72.9175 C 11.8155 72.9175 11.7198 72.9131 11.6454 72.9043 C 11.571 72.8955 11.5112 72.8809 11.4661 72.8604 C 11.4211 72.8403 11.3861 72.8125 11.3613 72.7764 C 11.3364 72.7412 11.3149 72.6963 11.2971 72.6426 L 10.4922 70.5957 C 10.3973 70.3633 10.2993 70.1494 10.1977 69.9546 C 10.0961 69.7598 9.9755 69.5918 9.8356 69.4512 C 9.6957 69.3101 9.531 69.2007 9.3415 69.1221 C 9.152 69.0439 8.9242 69.0049 8.6578 69.0049 L 7.8795 69.0049 L 7.8795 72.7031 C 7.8795 72.7383 7.8693 72.77 7.8492 72.7969 C 7.8289 72.8237 7.7973 72.8452 7.7545 72.8604 C 7.7115 72.876 7.6529 72.8896 7.5785 72.9009 C 7.504 72.9121 7.4104 72.9175 7.2977 72.9175 C 7.185 72.9175 7.0914 72.9121 7.017 72.9009 C 6.9425 72.8896 6.8828 72.876 6.8376 72.8604 C 6.7925 72.8452 6.761 72.8237 6.743 72.7969 C 6.7249 72.77 6.7159 72.7388 6.7159 72.7031 L 6.7159 64.6689 C 6.7159 64.4951 6.7621 64.373 6.8546 64.3037 C 6.947 64.2344 7.0453 64.2002 7.149 64.2002 L 9.0103 64.2002 C 9.2314 64.2002 9.4152 64.2051 9.5618 64.2168 C 9.7085 64.2275 9.8405 64.2402 9.9577 64.2539 C 10.2962 64.3115 10.5951 64.4033 10.8545 64.5283 C 11.114 64.6533 11.3317 64.8115 11.5078 65.0039 C 11.6837 65.1958 11.8157 65.416 11.9036 65.6641 C 11.9916 65.9121 12.0355 66.1855 12.0355 66.4844 C 12.0355 66.7754 11.9961 67.0352 11.917 67.2656 C 11.838 67.4956 11.7241 67.6987 11.5752 67.875 C 11.4264 68.0518 11.2481 68.2046 11.0406 68.334 C 10.833 68.4639 10.6006 68.5732 10.3433 68.6621 C 10.4875 68.7251 10.6184 68.8047 10.7356 68.9004 C 10.8528 68.9971 10.9622 69.1123 11.0636 69.2461 C 11.1651 69.3809 11.2609 69.5352 11.3511 69.7095 C 11.4413 69.8838 11.5314 70.0806 11.6217 70.2998 L 12.4063 72.2129 C 12.4696 72.374 12.5102 72.4873 12.528 72.5518 C 12.5461 72.6162 12.5551 72.667 12.5551 72.7031 Z" fill="#6f7070"/>
		<path d="M 17.7373 69.1011 C 17.751 68.519 17.6209 68.0625 17.3472 67.731 C 17.0734 67.3994 16.6675 67.2344 16.1293 67.2344 C 15.8532 67.2344 15.6113 67.2852 15.4033 67.3887 C 15.1954 67.4912 15.0212 67.6279 14.881 67.7979 C 14.7407 67.9688 14.6321 68.166 14.5553 68.3926 C 14.4785 68.6187 14.4355 68.8545 14.4263 69.1011 L 17.7373 69.1011 ZM 18.8594 69.4277 C 18.8594 69.6025 18.8154 69.7266 18.7273 69.8003 C 18.6391 69.874 18.5385 69.9111 18.4256 69.9111 L 14.4263 69.9111 C 14.4263 70.2471 14.4602 70.5488 14.528 70.8179 C 14.5955 71.0864 14.7083 71.3174 14.8664 71.5098 C 15.0242 71.7021 15.2297 71.8501 15.4823 71.9531 C 15.7352 72.0562 16.0443 72.1074 16.4098 72.1074 C 16.6986 72.1074 16.9557 72.084 17.1814 72.0376 C 17.4071 71.9912 17.6023 71.939 17.7671 71.8809 C 17.9317 71.8232 18.0672 71.7715 18.1732 71.7246 C 18.2791 71.6777 18.3592 71.6548 18.4135 71.6548 C 18.4451 71.6548 18.4733 71.6621 18.4982 71.6777 C 18.5229 71.6934 18.5421 71.7168 18.5556 71.748 C 18.5692 71.7793 18.5793 71.8223 18.5861 71.8779 C 18.5928 71.9331 18.5962 72.001 18.5962 72.0811 C 18.5962 72.1387 18.594 72.1885 18.5895 72.2305 C 18.585 72.2725 18.5794 72.3105 18.5726 72.3438 C 18.5658 72.377 18.5546 72.4072 18.5388 72.4336 C 18.5231 72.4604 18.5028 72.4858 18.4781 72.5107 C 18.4534 72.5347 18.3803 72.5747 18.2586 72.6299 C 18.1371 72.6855 17.9795 72.7402 17.7861 72.793 C 17.5926 72.8467 17.3686 72.8945 17.1143 72.9365 C 16.8602 72.979 16.5889 73 16.3006 73 C 15.8011 73 15.3634 72.9307 14.9875 72.792 C 14.6119 72.6533 14.2957 72.4482 14.0392 72.1753 C 13.7826 71.9028 13.5891 71.5605 13.4585 71.1494 C 13.328 70.7383 13.2627 70.2598 13.2627 69.7148 C 13.2627 69.1963 13.3304 68.7305 13.4655 68.3174 C 13.6008 67.9033 13.7957 67.5527 14.0501 67.2646 C 14.3048 66.9761 14.6123 66.7544 14.9729 66.6006 C 15.3334 66.4463 15.7368 66.3691 16.1826 66.3691 C 16.6603 66.3691 17.067 66.4453 17.4028 66.5977 C 17.7385 66.749 18.0145 66.9541 18.2308 67.2109 C 18.4471 67.4678 18.606 67.77 18.7073 68.1167 C 18.8087 68.4629 18.8594 68.833 18.8594 69.2266 L 18.8594 69.4277 Z" fill="#6f7070"/>
		<path d="M 23.6645 69.9521 L 22.7117 69.9521 C 22.4055 69.9521 22.1399 69.978 21.9146 70.0293 C 21.6895 70.0811 21.5024 70.1572 21.354 70.2578 C 21.2054 70.3584 21.0961 70.4795 21.0263 70.6206 C 20.9564 70.7617 20.9216 70.9238 20.9216 71.1074 C 20.9216 71.4209 21.0217 71.6704 21.2221 71.8564 C 21.4226 72.042 21.7029 72.1348 22.0633 72.1348 C 22.3561 72.1348 22.6274 72.061 22.8774 71.9131 C 23.1273 71.7656 23.3896 71.5391 23.6645 71.2349 L 23.6645 69.9521 ZM 24.7727 72.7168 C 24.7727 72.77 24.7547 72.8105 24.7186 72.8369 C 24.6826 72.8643 24.6331 72.8838 24.57 72.8975 C 24.507 72.9106 24.4146 72.9175 24.293 72.9175 C 24.1759 72.9175 24.0823 72.9106 24.0126 72.8975 C 23.9426 72.8838 23.892 72.8643 23.8604 72.8374 C 23.8289 72.8105 23.8132 72.7705 23.8132 72.7168 L 23.8132 72.1133 C 23.5469 72.3945 23.2502 72.6133 22.923 72.7676 C 22.5957 72.9229 22.2495 73 21.8839 73 C 21.5634 73 21.2733 72.9585 21.0139 72.876 C 20.7544 72.793 20.5332 72.6738 20.3505 72.5166 C 20.1676 72.3604 20.0254 72.168 19.924 71.9404 C 19.8224 71.7119 19.7717 71.4526 19.7717 71.1616 C 19.7717 70.8223 19.8416 70.5264 19.9816 70.2764 C 20.1214 70.0254 20.3223 69.8179 20.584 69.6523 C 20.8459 69.4873 21.1663 69.3623 21.5454 69.2803 C 21.9244 69.1973 22.3512 69.1563 22.8251 69.1563 L 23.6645 69.1563 L 23.6645 68.6855 C 23.6645 68.4531 23.6396 68.2471 23.5901 68.0674 C 23.5405 67.8887 23.4605 67.7397 23.3502 67.6211 C 23.2399 67.502 23.0969 67.4131 22.9212 67.3525 C 22.7456 67.2915 22.5292 67.2617 22.2724 67.2617 C 21.9976 67.2617 21.751 67.2939 21.5326 67.3599 C 21.3142 67.4253 21.1227 67.498 20.9582 67.5771 C 20.7937 67.6563 20.6563 67.729 20.546 67.7949 C 20.4357 67.8604 20.3535 67.8931 20.2994 67.8931 C 20.2634 67.8931 20.2318 67.8838 20.2048 67.8662 C 20.1778 67.8486 20.1542 67.8218 20.1339 67.7861 C 20.1136 67.7505 20.0988 67.7051 20.09 67.6494 C 20.081 67.5938 20.0764 67.5327 20.0764 67.4658 C 20.0764 67.3545 20.0843 67.2666 20.1001 67.2021 C 20.1159 67.1377 20.1542 67.0762 20.215 67.0186 C 20.2757 66.9609 20.3804 66.8926 20.5291 66.8135 C 20.6778 66.7344 20.849 66.6621 21.0427 66.5962 C 21.2364 66.5308 21.4482 66.4766 21.6779 66.4336 C 21.9077 66.3906 22.1396 66.3691 22.374 66.3691 C 22.8109 66.3691 23.1825 66.418 23.4888 66.5166 C 23.795 66.6152 24.0428 66.7588 24.232 66.9492 C 24.4213 67.1396 24.5587 67.3755 24.6443 67.6572 C 24.7299 67.939 24.7727 68.2676 24.7727 68.6436 L 24.7727 72.7168 Z" fill="#6f7070"/>
		<path d="M 27.6976 72.71 C 27.6976 72.7456 27.6886 72.7754 27.6705 72.7998 C 27.6523 72.8247 27.6228 72.8462 27.5821 72.8643 C 27.5412 72.8818 27.4845 72.8955 27.412 72.9043 C 27.3396 72.9131 27.2466 72.9175 27.1332 72.9175 C 27.0243 72.9175 26.9337 72.9131 26.8611 72.9043 C 26.7885 72.8955 26.7308 72.8818 26.6877 72.8643 C 26.6447 72.8462 26.6153 72.8247 26.5994 72.7998 C 26.5836 72.7754 26.5755 72.7456 26.5755 72.71 L 26.5755 63.7559 C 26.5755 63.7197 26.5836 63.6885 26.5994 63.6621 C 26.6153 63.6348 26.6447 63.6123 26.6877 63.5947 C 26.7308 63.5767 26.7885 63.5635 26.8611 63.5547 C 26.9337 63.5454 27.0243 63.541 27.1332 63.541 C 27.2466 63.541 27.3396 63.5454 27.412 63.5547 C 27.4845 63.5635 27.5412 63.5767 27.5821 63.5947 C 27.6228 63.6123 27.6523 63.6348 27.6705 63.6621 C 27.6886 63.6885 27.6976 63.7197 27.6976 63.7559 L 27.6976 72.71 Z" fill="#6f7070"/>
		<path d="M 37.1196 72.3994 C 37.1196 72.48 37.115 72.5503 37.106 72.6113 C 37.097 72.6709 37.0812 72.7217 37.0586 72.7617 C 37.036 72.8027 37.0101 72.8311 36.9807 72.8496 C 36.9514 72.8672 36.9186 72.876 36.8825 72.876 L 32.6766 72.876 C 32.5728 72.876 32.4746 72.8418 32.3821 72.7725 C 32.2895 72.7031 32.2432 72.5811 32.2432 72.4072 L 32.2432 64.6689 C 32.2432 64.4951 32.2895 64.373 32.3821 64.3037 C 32.4746 64.2344 32.5728 64.2002 32.6766 64.2002 L 36.8338 64.2002 C 36.8701 64.2002 36.9027 64.209 36.9321 64.2271 C 36.9614 64.2451 36.985 64.2744 37.0031 64.3145 C 37.0214 64.3545 37.0358 64.4053 37.0472 64.4653 C 37.0586 64.5264 37.0642 64.6011 37.0642 64.6904 C 37.0642 64.7715 37.0586 64.8418 37.0472 64.9023 C 37.0358 64.9629 37.0214 65.0117 37.0031 65.0498 C 36.985 65.0879 36.9614 65.1162 36.932 65.1338 C 36.9026 65.1519 36.8699 65.1611 36.8338 65.1611 L 33.4069 65.1611 L 33.4069 67.8789 L 36.3487 67.8789 C 36.385 67.8789 36.4178 67.8896 36.4472 67.9097 C 36.4764 67.9297 36.5013 67.9575 36.5217 67.9932 C 36.542 68.0293 36.5566 68.0781 36.5657 68.1411 C 36.5748 68.2041 36.5793 68.2778 36.5793 68.3633 C 36.5793 68.4434 36.5748 68.5127 36.5657 68.5713 C 36.5566 68.6289 36.542 68.6763 36.5217 68.7119 C 36.5013 68.748 36.4764 68.7734 36.4472 68.7891 C 36.4178 68.8047 36.385 68.8125 36.3487 68.8125 L 33.4069 68.8125 L 33.4069 71.915 L 36.8825 71.915 C 36.9186 71.915 36.9514 71.9243 36.9807 71.9424 C 37.0101 71.96 37.036 71.9883 37.0586 72.0264 C 37.0812 72.0645 37.097 72.1133 37.106 72.1738 C 37.115 72.2344 37.1196 72.3096 37.1196 72.3994 Z" fill="#6f7070"/>
		<path d="M 42.4626 71.062 C 42.4626 71.3711 42.405 71.6455 42.2901 71.8867 C 42.1751 72.1284 42.0116 72.332 41.7997 72.4971 C 41.5877 72.6621 41.3353 72.7876 41.0421 72.8726 C 40.7491 72.957 40.4266 73 40.075 73 C 39.8586 73 39.6524 72.9834 39.4562 72.9502 C 39.2601 72.917 39.0842 72.875 38.9288 72.8247 C 38.7732 72.7739 38.6413 72.7207 38.533 72.666 C 38.4248 72.6108 38.3459 72.5615 38.2962 72.5166 C 38.2466 72.4727 38.2106 72.4106 38.1879 72.3301 C 38.1655 72.2495 38.1543 72.1401 38.1543 72.001 C 38.1543 71.916 38.1589 71.8447 38.1678 71.7861 C 38.1768 71.7285 38.1881 71.6812 38.2015 71.6455 C 38.215 71.6094 38.2342 71.584 38.2589 71.5684 C 38.2837 71.5527 38.3117 71.5449 38.3433 71.5449 C 38.3927 71.5449 38.4658 71.5752 38.5627 71.6348 C 38.6595 71.6958 38.7788 71.7617 38.9206 71.833 C 39.0623 71.9043 39.23 71.9707 39.4236 72.0308 C 39.6169 72.0913 39.8397 72.1211 40.0916 72.1211 C 40.2807 72.1211 40.4518 72.1006 40.6048 72.0605 C 40.7579 72.02 40.8907 71.9609 41.0031 71.8818 C 41.1159 71.8027 41.2025 71.7026 41.2632 71.5811 C 41.324 71.46 41.3544 71.3159 41.3544 71.1494 C 41.3544 70.9795 41.3104 70.8364 41.2229 70.7207 C 41.1352 70.604 41.0194 70.501 40.8757 70.4121 C 40.7319 70.3223 40.57 70.2432 40.3901 70.1738 C 40.2102 70.1045 40.0248 70.0322 39.8339 69.9561 C 39.6428 69.8799 39.4562 69.7939 39.2741 69.6978 C 39.092 69.6016 38.9292 69.4844 38.7853 69.3457 C 38.6416 69.207 38.5258 69.042 38.4381 68.8496 C 38.3504 68.6572 38.3065 68.4272 38.3065 68.1592 C 38.3065 67.9229 38.3529 67.6953 38.4454 67.4785 C 38.5379 67.2617 38.6766 67.0723 38.8616 66.9087 C 39.0466 66.7451 39.2779 66.6147 39.5554 66.5166 C 39.8328 66.418 40.1566 66.3691 40.5266 66.3691 C 40.6892 66.3691 40.8514 66.3828 41.014 66.4111 C 41.1763 66.4385 41.3231 66.4736 41.4539 66.5151 C 41.5848 66.5566 41.6965 66.6025 41.789 66.6514 C 41.8815 66.7002 41.9514 66.7432 41.9988 66.7803 C 42.0461 66.8174 42.0778 66.8491 42.0935 66.876 C 42.1093 66.9023 42.1206 66.9321 42.1273 66.9653 C 42.1342 66.9985 42.1409 67.0396 42.1477 67.0889 C 42.1544 67.1377 42.1578 67.1973 42.1578 67.2686 C 42.1578 67.3438 42.1544 67.4092 42.1477 67.4644 C 42.1409 67.52 42.1295 67.5654 42.1138 67.6006 C 42.098 67.6367 42.0788 67.6621 42.0562 67.6777 C 42.0335 67.6934 42.0087 67.7012 41.9817 67.7012 C 41.9411 67.7012 41.8824 67.6758 41.8055 67.626 C 41.7288 67.5767 41.6293 67.5234 41.5074 67.4673 C 41.3854 67.4111 41.242 67.3584 41.0772 67.3086 C 40.9123 67.2588 40.7238 67.2344 40.5114 67.2344 C 40.3218 67.2344 40.1548 67.2549 40.0102 67.2974 C 39.8658 67.3394 39.7471 67.3994 39.6545 67.4766 C 39.5618 67.5542 39.4919 67.6465 39.4445 67.7529 C 39.397 67.8594 39.3733 67.9746 39.3733 68.0986 C 39.3733 68.2734 39.4183 68.4194 39.5086 68.5381 C 39.5986 68.6563 39.7158 68.7603 39.86 68.8496 C 40.0042 68.9395 40.1688 69.0195 40.3536 69.0913 C 40.5382 69.1626 40.7264 69.2363 40.9179 69.3125 C 41.1095 69.3887 41.2988 69.4731 41.4859 69.5674 C 41.6727 69.6611 41.8383 69.7749 41.9826 69.9092 C 42.1268 70.0435 42.2428 70.2041 42.3308 70.3916 C 42.4186 70.5791 42.4626 70.8032 42.4626 71.062 Z" fill="#6f7070"/>
		<path d="M 46.8242 72.2607 C 46.8242 72.3906 46.8153 72.4937 46.7971 72.5698 C 46.7793 72.6455 46.7523 72.7021 46.7162 72.7378 C 46.6802 72.7734 46.6262 72.8071 46.5543 72.8384 C 46.4823 72.8696 46.4001 72.8955 46.308 72.9155 C 46.2157 72.9355 46.1178 72.9521 46.0142 72.9658 C 45.9109 72.9795 45.8073 72.9863 45.7039 72.9863 C 45.3889 72.9863 45.119 72.9448 44.894 72.8623 C 44.669 72.7798 44.4846 72.6553 44.3406 72.4873 C 44.1964 72.3208 44.0919 72.1084 44.0267 71.8525 C 43.9615 71.5957 43.9289 71.2935 43.9289 70.9458 L 43.9289 67.4258 L 43.0725 67.4258 C 43.0047 67.4258 42.9503 67.3906 42.9094 67.3184 C 42.8687 67.2471 42.8483 67.1309 42.8483 66.9697 C 42.8483 66.8848 42.854 66.813 42.8653 66.7549 C 42.8766 66.6963 42.8913 66.6484 42.9094 66.6104 C 42.9276 66.5723 42.9513 66.5454 42.9808 66.5298 C 43.0101 66.5146 43.0429 66.5068 43.0793 66.5068 L 43.9289 66.5068 L 43.9289 65.0732 C 43.9289 65.042 43.9368 65.0127 43.9527 64.9863 C 43.9685 64.959 43.9979 64.9355 44.0411 64.916 C 44.084 64.896 44.142 64.8813 44.2144 64.8721 C 44.287 64.8633 44.3776 64.8594 44.4864 64.8594 C 44.5999 64.8594 44.6929 64.8633 44.7653 64.8721 C 44.8379 64.8813 44.8945 64.896 44.9353 64.916 C 44.9762 64.9355 45.0057 64.959 45.0238 64.9863 C 45.0419 65.0127 45.051 65.042 45.051 65.0732 L 45.051 66.5068 L 46.6025 66.5068 C 46.6384 66.5068 46.6696 66.5146 46.6967 66.5298 C 46.7234 66.5454 46.747 66.5723 46.7671 66.6104 C 46.7872 66.6484 46.8018 66.6963 46.8108 66.7549 C 46.8198 66.813 46.8242 66.8848 46.8242 66.9697 C 46.8242 67.1309 46.804 67.2471 46.7636 67.3184 C 46.7233 67.3906 46.6696 67.4258 46.6025 67.4258 L 45.051 67.4258 L 45.051 70.7822 C 45.051 71.1963 45.1125 71.5098 45.2357 71.7217 C 45.3589 71.9331 45.5793 72.0391 45.8973 72.0391 C 46.0003 72.0391 46.0922 72.0288 46.1728 72.0088 C 46.2533 71.9888 46.325 71.9678 46.3875 71.9453 C 46.4503 71.9229 46.5038 71.9014 46.5487 71.8813 C 46.5934 71.8613 46.6338 71.8511 46.6696 71.8511 C 46.692 71.8511 46.7133 71.8569 46.7334 71.8682 C 46.7536 71.8789 46.7693 71.9004 46.7805 71.9316 C 46.7917 71.9629 46.8018 72.0059 46.8108 72.0596 C 46.8198 72.1128 46.8242 72.1802 46.8242 72.2607 Z" fill="#6f7070"/>
		<path d="M 51.3757 69.9521 L 50.4231 69.9521 C 50.1169 69.9521 49.8513 69.978 49.6261 70.0293 C 49.4008 70.0811 49.214 70.1572 49.0653 70.2578 C 48.9166 70.3584 48.8074 70.4795 48.7376 70.6206 C 48.6678 70.7617 48.6328 70.9238 48.6328 71.1074 C 48.6328 71.4209 48.733 71.6704 48.9336 71.8564 C 49.1339 72.042 49.4143 72.1348 49.7746 72.1348 C 50.0675 72.1348 50.3388 72.061 50.5886 71.9131 C 50.8387 71.7656 51.1009 71.5391 51.3757 71.2349 L 51.3757 69.9521 ZM 52.484 72.7168 C 52.484 72.77 52.4661 72.8105 52.4301 72.8369 C 52.394 72.8643 52.3445 72.8838 52.2813 72.8975 C 52.2181 72.9106 52.1259 72.9175 52.0044 72.9175 C 51.8872 72.9175 51.7936 72.9106 51.7238 72.8975 C 51.6541 72.8838 51.6034 72.8643 51.5718 72.8374 C 51.5403 72.8105 51.5245 72.7705 51.5245 72.7168 L 51.5245 72.1133 C 51.2582 72.3945 50.9614 72.6133 50.6342 72.7676 C 50.307 72.9229 49.9607 73 49.5951 73 C 49.2748 73 48.9847 72.9585 48.7253 72.876 C 48.4657 72.793 48.2446 72.6738 48.0619 72.5166 C 47.8789 72.3604 47.7368 72.168 47.6353 71.9404 C 47.5338 71.7119 47.483 71.4526 47.483 71.1616 C 47.483 70.8223 47.5529 70.5264 47.6928 70.2764 C 47.8328 70.0254 48.0337 69.8179 48.2953 69.6523 C 48.5571 69.4873 48.8776 69.3623 49.2567 69.2803 C 49.636 69.1973 50.0624 69.1563 50.5364 69.1563 L 51.3757 69.1563 L 51.3757 68.6855 C 51.3757 68.4531 51.351 68.2471 51.3014 68.0674 C 51.2519 67.8887 51.172 67.7397 51.0616 67.6211 C 50.9513 67.502 50.8083 67.4131 50.6325 67.3525 C 50.4568 67.2915 50.2405 67.2617 49.9838 67.2617 C 49.7089 67.2617 49.4624 67.2939 49.2439 67.3599 C 49.0253 67.4253 48.8339 67.498 48.6694 67.5771 C 48.505 67.6563 48.3676 67.729 48.2574 67.7949 C 48.147 67.8604 48.0648 67.8931 48.0107 67.8931 C 47.9746 67.8931 47.9431 67.8838 47.9161 67.8662 C 47.8892 67.8486 47.8656 67.8218 47.8453 67.7861 C 47.825 67.7505 47.8104 67.7051 47.8013 67.6494 C 47.7923 67.5938 47.7878 67.5327 47.7878 67.4658 C 47.7878 67.3545 47.7957 67.2666 47.8114 67.2021 C 47.8273 67.1377 47.8656 67.0762 47.9262 67.0186 C 47.9871 66.9609 48.0917 66.8926 48.2404 66.8135 C 48.3893 66.7344 48.5605 66.6621 48.754 66.5962 C 48.9477 66.5308 49.1593 66.4766 49.3893 66.4336 C 49.619 66.3906 49.8512 66.3691 50.0852 66.3691 C 50.5222 66.3691 50.8939 66.418 51.2001 66.5166 C 51.5064 66.6152 51.7542 66.7588 51.9434 66.9492 C 52.1326 67.1396 52.2702 67.3755 52.3557 67.6572 C 52.4412 67.939 52.484 68.2676 52.484 68.6436 L 52.484 72.7168 Z" fill="#6f7070"/>
		<path d="M 57.3346 72.2607 C 57.3346 72.3906 57.3257 72.4937 57.3078 72.5698 C 57.2898 72.6455 57.2627 72.7021 57.2268 72.7378 C 57.1908 72.7734 57.1368 72.8071 57.0647 72.8384 C 56.9926 72.8696 56.9106 72.8955 56.8184 72.9155 C 56.7263 72.9355 56.6283 72.9521 56.5248 72.9658 C 56.4213 72.9795 56.3178 72.9863 56.2142 72.9863 C 55.8994 72.9863 55.6294 72.9448 55.4045 72.8623 C 55.1796 72.7798 54.9951 72.6553 54.851 72.4873 C 54.707 72.3208 54.6024 72.1084 54.5372 71.8525 C 54.4719 71.5957 54.4392 71.2935 54.4392 70.9458 L 54.4392 67.4258 L 53.583 67.4258 C 53.515 67.4258 53.4607 67.3906 53.42 67.3184 C 53.3792 67.2471 53.3587 67.1309 53.3587 66.9697 C 53.3587 66.8848 53.3644 66.813 53.3757 66.7549 C 53.3871 66.6963 53.4019 66.6484 53.42 66.6104 C 53.438 66.5723 53.4618 66.5454 53.4912 66.5298 C 53.5208 66.5146 53.5536 66.5068 53.5897 66.5068 L 54.4392 66.5068 L 54.4392 65.0732 C 54.4392 65.042 54.4472 65.0127 54.4631 64.9863 C 54.479 64.959 54.5084 64.9355 54.5515 64.916 C 54.5946 64.896 54.6524 64.8813 54.7249 64.8721 C 54.7973 64.8633 54.888 64.8594 54.997 64.8594 C 55.1103 64.8594 55.2032 64.8633 55.2758 64.8721 C 55.3483 64.8813 55.4051 64.896 55.4458 64.916 C 55.4866 64.9355 55.5162 64.959 55.5342 64.9863 C 55.5524 65.0127 55.5615 65.042 55.5615 65.0732 L 55.5615 66.5068 L 57.113 66.5068 C 57.1487 66.5068 57.1801 66.5146 57.2071 66.5298 C 57.2339 66.5454 57.2575 66.5723 57.2775 66.6104 C 57.2977 66.6484 57.3123 66.6963 57.3212 66.7549 C 57.33 66.813 57.3346 66.8848 57.3346 66.9697 C 57.3346 67.1309 57.3145 67.2471 57.2742 67.3184 C 57.2339 67.3906 57.1801 67.4258 57.113 67.4258 L 55.5615 67.4258 L 55.5615 70.7822 C 55.5615 71.1963 55.623 71.5098 55.7462 71.7217 C 55.8693 71.9331 56.0899 72.0391 56.4078 72.0391 C 56.5108 72.0391 56.6026 72.0288 56.6832 72.0088 C 56.7639 71.9888 56.8354 71.9678 56.8981 71.9453 C 56.9606 71.9229 57.0144 71.9014 57.0593 71.8813 C 57.104 71.8613 57.1443 71.8511 57.1801 71.8511 C 57.2025 71.8511 57.2237 71.8569 57.244 71.8682 C 57.2642 71.8789 57.2799 71.9004 57.2911 71.9316 C 57.3022 71.9629 57.3123 72.0059 57.3212 72.0596 C 57.33 72.1128 57.3346 72.1802 57.3346 72.2607 Z" fill="#6f7070"/>
		<path d="M 62.468 69.1011 C 62.4817 68.519 62.3516 68.0625 62.078 67.731 C 61.8043 67.3994 61.3983 67.2344 60.86 67.2344 C 60.5841 67.2344 60.3422 67.2852 60.1341 67.3887 C 59.9262 67.4912 59.752 67.6279 59.6117 67.7979 C 59.4715 67.9688 59.3629 68.166 59.286 68.3926 C 59.2092 68.6187 59.1664 68.8545 59.1573 69.1011 L 62.468 69.1011 ZM 63.5901 69.4277 C 63.5901 69.6025 63.5463 69.7266 63.458 69.8003 C 63.37 69.874 63.2694 69.9111 63.1565 69.9111 L 59.1573 69.9111 C 59.1573 70.2471 59.1911 70.5488 59.2587 70.8179 C 59.3263 71.0864 59.4392 71.3174 59.5972 71.5098 C 59.7551 71.7021 59.9604 71.8501 60.2132 71.9531 C 60.4659 72.0562 60.7751 72.1074 61.1406 72.1074 C 61.4292 72.1074 61.6865 72.084 61.9122 72.0376 C 62.138 71.9912 62.3331 71.939 62.4979 71.8809 C 62.6626 71.8232 62.798 71.7715 62.9039 71.7246 C 63.0099 71.6777 63.09 71.6548 63.1443 71.6548 C 63.176 71.6548 63.2041 71.6621 63.2289 71.6777 C 63.2538 71.6934 63.2729 71.7168 63.2865 71.748 C 63.2998 71.7793 63.31 71.8223 63.3167 71.8779 C 63.3237 71.9331 63.327 72.001 63.327 72.0811 C 63.327 72.1387 63.3248 72.1885 63.3203 72.2305 C 63.3159 72.2725 63.3103 72.3105 63.3035 72.3438 C 63.2966 72.377 63.2854 72.4072 63.2697 72.4336 C 63.2539 72.4604 63.2337 72.4858 63.2089 72.5107 C 63.1842 72.5347 63.111 72.5747 62.9894 72.6299 C 62.8678 72.6855 62.7103 72.7402 62.5168 72.793 C 62.3233 72.8467 62.0994 72.8945 61.8452 72.9365 C 61.5908 72.979 61.3196 73 61.0315 73 C 60.5319 73 60.0942 72.9307 59.7185 72.792 C 59.3427 72.6533 59.0265 72.4482 58.7699 72.1753 C 58.5133 71.9028 58.3198 71.5605 58.1894 71.1494 C 58.0588 70.7383 57.9936 70.2598 57.9936 69.7148 C 57.9936 69.1963 58.0611 68.7305 58.1963 68.3174 C 58.3315 67.9033 58.5265 67.5527 58.7811 67.2646 C 59.0355 66.9761 59.3432 66.7544 59.7036 66.6006 C 60.0642 66.4463 60.4674 66.3691 60.9135 66.3691 C 61.3911 66.3691 61.7979 66.4453 62.1335 66.5977 C 62.4693 66.749 62.7453 66.9541 62.9616 67.2109 C 63.1779 67.4678 63.3367 67.77 63.4381 68.1167 C 63.5395 68.4629 63.5901 68.833 63.5901 69.2266 L 63.5901 69.4277 Z" fill="#6f7070"/>
		<path d="M 68.9435 72.7031 C 68.9435 72.7388 68.9345 72.77 68.9164 72.7969 C 68.8983 72.8237 68.8669 72.8452 68.8217 72.8604 C 68.7766 72.876 68.7168 72.8896 68.6423 72.9009 C 68.5679 72.9121 68.4743 72.9175 68.3616 72.9175 C 68.2534 72.9175 68.1609 72.9121 68.0844 72.9009 C 68.0076 72.8896 67.9467 72.876 67.9017 72.8604 C 67.8564 72.8452 67.825 72.8237 67.8068 72.7969 C 67.7888 72.77 67.7799 72.7388 67.7799 72.7031 L 67.7799 64.373 C 67.7799 64.3379 67.7899 64.3062 67.8102 64.2793 C 67.8305 64.2529 67.8643 64.2314 67.9117 64.2158 C 67.9592 64.2002 68.02 64.1865 68.0944 64.1758 C 68.1688 64.1646 68.2579 64.1587 68.3616 64.1587 C 68.4743 64.1587 68.5679 64.1646 68.6423 64.1758 C 68.7168 64.1865 68.7766 64.2002 68.8217 64.2158 C 68.8669 64.2314 68.8983 64.2529 68.9164 64.2793 C 68.9345 64.3062 68.9435 64.3379 68.9435 64.373 L 68.9435 72.7031 Z" fill="#6f7070"/>
		<path d="M 76.1389 72.7095 C 76.1389 72.7451 76.1299 72.7754 76.1119 72.7998 C 76.0937 72.8247 76.0641 72.8462 76.0235 72.8643 C 75.9824 72.8818 75.9259 72.8955 75.8533 72.9043 C 75.7807 72.9131 75.6902 72.9175 75.5812 72.9175 C 75.468 72.9175 75.3748 72.9131 75.3022 72.9043 C 75.23 72.8955 75.1732 72.8818 75.1324 72.8643 C 75.0915 72.8462 75.0622 72.8247 75.0439 72.7998 C 75.026 72.7754 75.0169 72.7456 75.0169 72.71 L 75.0169 69.1748 C 75.0169 68.8301 74.9897 68.5527 74.936 68.3428 C 74.8824 68.1328 74.8038 67.9517 74.7008 67.7998 C 74.5975 67.6475 74.4643 67.5313 74.3006 67.4512 C 74.137 67.3701 73.9478 67.3301 73.7326 67.3301 C 73.4546 67.3301 73.1767 67.4287 72.8987 67.625 C 72.6208 67.8223 72.3293 68.1104 72.0246 68.4907 L 72.0246 72.71 C 72.0246 72.7456 72.0154 72.7754 71.9975 72.7998 C 71.9792 72.8247 71.9498 72.8462 71.909 72.8643 C 71.8681 72.8818 71.8114 72.8955 71.7388 72.9043 C 71.6666 72.9131 71.5734 72.9175 71.46 72.9175 C 71.3512 72.9175 71.2607 72.9131 71.1881 72.9043 C 71.1155 72.8955 71.0577 72.8818 71.0146 72.8643 C 70.9716 72.8462 70.9422 72.8247 70.9262 72.7998 C 70.9103 72.7754 70.9024 72.7456 70.9024 72.71 L 70.9024 66.6729 C 70.9024 66.6372 70.9092 66.6074 70.9227 66.5825 C 70.9363 66.5576 70.9635 66.5356 71.0044 66.5156 C 71.0452 66.4956 71.0973 66.4819 71.1609 66.4756 C 71.2244 66.4688 71.3083 66.4648 71.4123 66.4648 C 71.5121 66.4648 71.5949 66.4688 71.6605 66.4756 C 71.7263 66.4819 71.7773 66.4956 71.8137 66.5156 C 71.8499 66.5356 71.8759 66.5576 71.8918 66.5825 C 71.9077 66.6074 71.9158 66.6372 71.9158 66.6729 L 71.9158 67.4717 C 72.2575 67.0903 72.5982 66.8115 72.9378 66.6343 C 73.2773 66.457 73.6203 66.3691 73.9666 66.3691 C 74.3715 66.3691 74.712 66.4375 74.9886 66.5737 C 75.2653 66.71 75.4891 66.8926 75.66 67.1206 C 75.8307 67.3486 75.9532 67.6162 76.0277 67.9229 C 76.1018 68.2285 76.1389 68.5967 76.1389 69.0259 L 76.1389 72.7095 Z" fill="#6f7070"/>
		<path d="M 82.7131 66.6597 C 82.7131 66.6777 82.7121 66.6963 82.7097 66.7168 C 82.7076 66.7368 82.704 66.7578 82.6996 66.7803 C 82.6951 66.8027 82.6894 66.8271 82.6827 66.854 C 82.6759 66.8809 82.6681 66.9102 82.659 66.9414 L 80.5824 72.6758 C 80.5645 72.7251 80.5405 72.7656 80.5113 72.7969 C 80.4819 72.8281 80.438 72.8525 80.3794 72.8706 C 80.3206 72.8887 80.2462 72.9009 80.1559 72.9072 C 80.0659 72.9141 79.9533 72.9175 79.818 72.9175 C 79.6827 72.9175 79.5698 72.9131 79.4799 72.9043 C 79.3895 72.8955 79.316 72.8818 79.2599 72.8643 C 79.2035 72.8462 79.1595 72.8213 79.1281 72.79 C 79.0966 72.7588 79.0716 72.7207 79.0536 72.6758 L 76.9838 66.9414 C 76.9658 66.8877 76.9509 66.8408 76.9398 66.8003 C 76.9286 66.7603 76.9218 66.73 76.9195 66.71 C 76.9174 66.6904 76.9161 66.6729 76.9161 66.6597 C 76.9161 66.624 76.9252 66.5928 76.9431 66.5654 C 76.9612 66.5391 76.9919 66.5176 77.0345 66.502 C 77.0772 66.4863 77.1336 66.4766 77.2036 66.4717 C 77.2733 66.4673 77.3602 66.4648 77.464 66.4648 C 77.5949 66.4648 77.6994 66.4688 77.7786 66.4756 C 77.8574 66.4819 77.9185 66.4941 77.9612 66.5122 C 78.0042 66.5298 78.0355 66.5527 78.0558 66.5791 C 78.0762 66.6064 78.0955 66.6396 78.1134 66.6797 L 79.8315 71.6567 L 79.8583 71.7373 L 79.8788 71.6567 L 81.5766 66.6797 C 81.5858 66.6396 81.6014 66.6064 81.6241 66.5791 C 81.6467 66.5527 81.6794 66.5298 81.7222 66.5122 C 81.765 66.4941 81.8236 66.4819 81.8979 66.4756 C 81.9724 66.4688 82.0705 66.4648 82.1922 66.4648 C 82.2961 66.4648 82.3817 66.4673 82.4493 66.4717 C 82.5169 66.4766 82.57 66.4878 82.6082 66.5059 C 82.6465 66.5234 82.6736 66.5449 82.6894 66.5693 C 82.7053 66.5938 82.7131 66.624 82.7131 66.6597 Z" fill="#6f7070"/>
		<path d="M 87.6648 69.1011 C 87.6783 68.519 87.5482 68.0625 87.2746 67.731 C 87.0009 67.3994 86.595 67.2344 86.0568 67.2344 C 85.7808 67.2344 85.5387 67.2852 85.3309 67.3887 C 85.1228 67.4912 84.9487 67.6279 84.8085 67.7979 C 84.6682 67.9688 84.5595 68.166 84.4828 68.3926 C 84.4059 68.6187 84.3628 68.8545 84.354 69.1011 L 87.6648 69.1011 ZM 88.7869 69.4277 C 88.7869 69.6025 88.743 69.7266 88.6548 69.8003 C 88.5665 69.874 88.4662 69.9111 88.3532 69.9111 L 84.354 69.9111 C 84.354 70.2471 84.3878 70.5488 84.4554 70.8179 C 84.5231 71.0864 84.636 71.3174 84.7939 71.5098 C 84.9518 71.7021 85.157 71.8501 85.4096 71.9531 C 85.6626 72.0562 85.9717 72.1074 86.3372 72.1074 C 86.6259 72.1074 86.8833 72.084 87.1089 72.0376 C 87.3347 71.9912 87.5298 71.939 87.6945 71.8809 C 87.8594 71.8232 87.9947 71.7715 88.1006 71.7246 C 88.2065 71.6777 88.2867 71.6548 88.341 71.6548 C 88.3725 71.6548 88.4008 71.6621 88.4256 71.6777 C 88.4505 71.6934 88.4697 71.7168 88.4831 71.748 C 88.4966 71.7793 88.5068 71.8223 88.5134 71.8779 C 88.5203 71.9331 88.5236 72.001 88.5236 72.0811 C 88.5236 72.1387 88.5215 72.1885 88.5172 72.2305 C 88.5125 72.2725 88.507 72.3105 88.5 72.3438 C 88.4932 72.377 88.4819 72.4072 88.4664 72.4336 C 88.4505 72.4604 88.4302 72.4858 88.4057 72.5107 C 88.3807 72.5347 88.3076 72.5747 88.1862 72.6299 C 88.0645 72.6855 87.9071 72.7402 87.7134 72.793 C 87.5199 72.8467 87.2961 72.8945 87.042 72.9365 C 86.7876 72.979 86.5164 73 86.2281 73 C 85.7287 73 85.291 72.9307 84.9151 72.792 C 84.5395 72.6533 84.2233 72.4482 83.9666 72.1753 C 83.7101 71.9028 83.5165 71.5605 83.3859 71.1494 C 83.2556 70.7383 83.1902 70.2598 83.1902 69.7148 C 83.1902 69.1963 83.2579 68.7305 83.3929 68.3174 C 83.5283 67.9033 83.7231 67.5527 83.9778 67.2646 C 84.2322 66.9761 84.5398 66.7544 84.9003 66.6006 C 85.2609 66.4463 85.6641 66.3691 86.1101 66.3691 C 86.5878 66.3691 86.9946 66.4453 87.3302 66.5977 C 87.6659 66.749 87.9421 66.9541 88.1584 67.2109 C 88.3746 67.4678 88.5335 67.77 88.6348 68.1167 C 88.7362 68.4629 88.7869 68.833 88.7869 69.2266 L 88.7869 69.4277 Z" fill="#6f7070"/>
		<path d="M 93.8827 71.062 C 93.8827 71.3711 93.8255 71.6455 93.7104 71.8867 C 93.5952 72.1284 93.4319 72.332 93.2199 72.4971 C 93.0081 72.6621 92.7558 72.7876 92.4625 72.8726 C 92.1693 72.957 91.847 73 91.4955 73 C 91.2791 73 91.0727 72.9834 90.8766 72.9502 C 90.6805 72.917 90.5046 72.875 90.3489 72.8247 C 90.1934 72.7739 90.0615 72.7207 89.9532 72.666 C 89.845 72.6108 89.7662 72.5615 89.7165 72.5166 C 89.6667 72.4727 89.6308 72.4106 89.6083 72.3301 C 89.5858 72.2495 89.5744 72.1401 89.5744 72.001 C 89.5744 71.916 89.5792 71.8447 89.588 71.7861 C 89.5971 71.7285 89.6083 71.6812 89.6218 71.6455 C 89.6353 71.6094 89.6546 71.584 89.679 71.5684 C 89.704 71.5527 89.7321 71.5449 89.7635 71.5449 C 89.813 71.5449 89.8861 71.5752 89.9829 71.6348 C 90.0797 71.6958 90.1991 71.7617 90.3409 71.833 C 90.4826 71.9043 90.6505 71.9707 90.8438 72.0308 C 91.0374 72.0913 91.26 72.1211 91.5122 72.1211 C 91.701 72.1211 91.8722 72.1006 92.0252 72.0605 C 92.1782 72.02 92.3109 71.9609 92.4235 71.8818 C 92.5361 71.8027 92.6228 71.7026 92.6834 71.5811 C 92.7443 71.46 92.7748 71.3159 92.7748 71.1494 C 92.7748 70.9795 92.7307 70.8364 92.6431 70.7207 C 92.5554 70.604 92.4398 70.501 92.296 70.4121 C 92.1521 70.3223 91.9903 70.2432 91.8103 70.1738 C 91.6305 70.1045 91.445 70.0322 91.2541 69.9561 C 91.0631 69.8799 90.8766 69.7939 90.6945 69.6978 C 90.5123 69.6016 90.3495 69.4844 90.2056 69.3457 C 90.0617 69.207 89.946 69.042 89.8585 68.8496 C 89.7706 68.6572 89.7269 68.4272 89.7269 68.1592 C 89.7269 67.9229 89.7732 67.6953 89.8658 67.4785 C 89.9581 67.2617 90.0968 67.0723 90.2818 66.9087 C 90.4668 66.7451 90.6981 66.6147 90.9757 66.5166 C 91.253 66.418 91.5769 66.3691 91.9469 66.3691 C 92.1095 66.3691 92.2718 66.3828 92.4342 66.4111 C 92.5965 66.4385 92.7433 66.4736 92.8741 66.5151 C 93.005 66.5566 93.1168 66.6025 93.2092 66.6514 C 93.3019 66.7002 93.3718 66.7432 93.4191 66.7803 C 93.4665 66.8174 93.4983 66.8491 93.5139 66.876 C 93.5295 66.9023 93.5409 66.9321 93.5477 66.9653 C 93.5544 66.9985 93.5612 67.0396 93.568 67.0889 C 93.5748 67.1377 93.5781 67.1973 93.5781 67.2686 C 93.5781 67.3438 93.5748 67.4092 93.568 67.4644 C 93.5612 67.52 93.5498 67.5654 93.5341 67.6006 C 93.5182 67.6367 93.4991 67.6621 93.4764 67.6777 C 93.454 67.6934 93.429 67.7012 93.402 67.7012 C 93.3615 67.7012 93.3026 67.6758 93.2259 67.626 C 93.149 67.5767 93.0497 67.5234 92.9277 67.4673 C 92.8057 67.4111 92.6624 67.3584 92.4974 67.3086 C 92.3327 67.2588 92.144 67.2344 91.9318 67.2344 C 91.7422 67.2344 91.5751 67.2549 91.4305 67.2974 C 91.286 67.3394 91.1675 67.3994 91.0748 67.4766 C 90.9822 67.5542 90.9122 67.6465 90.8648 67.7529 C 90.8173 67.8594 90.7936 67.9746 90.7936 68.0986 C 90.7936 68.2734 90.8387 68.4194 90.9288 68.5381 C 91.0189 68.6563 91.136 68.7603 91.2804 68.8496 C 91.4245 68.9395 91.5892 69.0195 91.7738 69.0913 C 91.9586 69.1626 92.1467 69.2363 92.3383 69.3125 C 92.5296 69.3887 92.7191 69.4731 92.9061 69.5674 C 93.0929 69.6611 93.2585 69.7749 93.4031 69.9092 C 93.5472 70.0435 93.6632 70.2041 93.7511 70.3916 C 93.839 70.5791 93.8827 70.8032 93.8827 71.062 Z" fill="#6f7070"/>
		<path d="M 98.2444 72.2607 C 98.2444 72.3906 98.2354 72.4937 98.2177 72.5698 C 98.1995 72.6455 98.1726 72.7021 98.1365 72.7378 C 98.1005 72.7734 98.0465 72.8071 97.9747 72.8384 C 97.9026 72.8696 97.8203 72.8955 97.7282 72.9155 C 97.6359 72.9355 97.5381 72.9521 97.4345 72.9658 C 97.331 72.9795 97.2274 72.9863 97.1241 72.9863 C 96.8091 72.9863 96.5393 72.9448 96.3143 72.8623 C 96.0895 72.7798 95.9048 72.6553 95.761 72.4873 C 95.6167 72.3208 95.5121 72.1084 95.4469 71.8525 C 95.3818 71.5957 95.3491 71.2935 95.3491 70.9458 L 95.3491 67.4258 L 94.4929 67.4258 C 94.4249 67.4258 94.3706 67.3906 94.3297 67.3184 C 94.2889 67.2471 94.2686 67.1309 94.2686 66.9697 C 94.2686 66.8848 94.2744 66.813 94.2855 66.7549 C 94.2969 66.6963 94.3115 66.6484 94.3297 66.6104 C 94.348 66.5723 94.3716 66.5454 94.4011 66.5298 C 94.4304 66.5146 94.4635 66.5068 94.4997 66.5068 L 95.3491 66.5068 L 95.3491 65.0732 C 95.3491 65.042 95.3571 65.0127 95.373 64.9863 C 95.3889 64.959 95.4183 64.9355 95.4615 64.916 C 95.5044 64.896 95.5624 64.8813 95.6346 64.8721 C 95.7073 64.8633 95.7979 64.8594 95.9069 64.8594 C 96.0203 64.8594 96.1132 64.8633 96.1857 64.8721 C 96.2581 64.8813 96.3148 64.896 96.3556 64.916 C 96.3965 64.9355 96.4259 64.959 96.4441 64.9863 C 96.4621 65.0127 96.4714 65.042 96.4714 65.0732 L 96.4714 66.5068 L 98.0227 66.5068 C 98.0587 66.5068 98.0899 66.5146 98.1169 66.5298 C 98.1438 66.5454 98.1671 66.5723 98.1875 66.6104 C 98.2076 66.6484 98.222 66.6963 98.2312 66.7549 C 98.24 66.813 98.2444 66.8848 98.2444 66.9697 C 98.2444 67.1309 98.2245 67.2471 98.1839 67.3184 C 98.1438 67.3906 98.0899 67.4258 98.0227 67.4258 L 96.4714 67.4258 L 96.4714 70.7822 C 96.4714 71.1963 96.5328 71.5098 96.6561 71.7217 C 96.7791 71.9331 96.9995 72.0391 97.3174 72.0391 C 97.4205 72.0391 97.5125 72.0288 97.593 72.0088 C 97.6736 71.9888 97.7452 71.9678 97.8079 71.9453 C 97.8706 71.9229 97.9242 71.9014 97.969 71.8813 C 98.0137 71.8613 98.0542 71.8511 98.0899 71.8511 C 98.1122 71.8511 98.1336 71.8569 98.1537 71.8682 C 98.1739 71.8789 98.1895 71.9004 98.201 71.9316 C 98.2119 71.9629 98.222 72.0059 98.2312 72.0596 C 98.24 72.1128 98.2444 72.1802 98.2444 72.2607 Z" fill="#6f7070"/>
		<path d="M 108.4897 72.7095 C 108.4897 72.7451 108.4807 72.7754 108.4627 72.7998 C 108.4447 72.8247 108.4153 72.8462 108.3748 72.8643 C 108.3342 72.8818 108.278 72.8955 108.2059 72.9043 C 108.1336 72.9131 108.0436 72.9175 107.9353 72.9175 C 107.8229 72.9175 107.7303 72.9131 107.6583 72.9043 C 107.5862 72.8955 107.5287 72.8818 107.4858 72.8643 C 107.4431 72.8462 107.4126 72.8247 107.3947 72.7998 C 107.3765 72.7754 107.3677 72.7456 107.3677 72.71 L 107.3677 69.0405 C 107.3677 68.7856 107.3453 68.5527 107.3 68.3428 C 107.2553 68.1328 107.1832 67.9517 107.0843 67.7998 C 106.9854 67.6475 106.8595 67.5313 106.7066 67.4512 C 106.5539 67.3701 106.3738 67.3301 106.1672 67.3301 C 105.9107 67.3301 105.6532 67.4287 105.3945 67.625 C 105.1362 67.8223 104.8518 68.1104 104.5414 68.4907 L 104.5414 72.71 C 104.5414 72.7456 104.5323 72.7754 104.5144 72.7998 C 104.4962 72.8247 104.4658 72.8462 104.4226 72.8643 C 104.3794 72.8818 104.3217 72.8955 104.2491 72.9043 C 104.1765 72.9131 104.0859 72.9175 103.977 72.9175 C 103.8729 72.9175 103.7834 72.9131 103.7084 72.9043 C 103.6337 72.8955 103.5747 72.8818 103.5317 72.8643 C 103.4887 72.8462 103.459 72.8247 103.4433 72.7998 C 103.4272 72.7754 103.4194 72.7456 103.4194 72.71 L 103.4194 69.0405 C 103.4194 68.7856 103.3947 68.5527 103.3449 68.3428 C 103.2955 68.1328 103.2212 67.9517 103.1217 67.7998 C 103.0226 67.6475 102.8975 67.5313 102.7466 67.4512 C 102.5954 67.3701 102.4162 67.3301 102.209 67.3301 C 101.952 67.3301 101.6929 67.4287 101.4315 67.625 C 101.17 67.8223 100.8859 68.1104 100.5794 68.4907 L 100.5794 72.71 C 100.5794 72.7456 100.5703 72.7754 100.5524 72.7998 C 100.5341 72.8247 100.5048 72.8462 100.4638 72.8643 C 100.4231 72.8818 100.3663 72.8955 100.2937 72.9043 C 100.2214 72.9131 100.1283 72.9175 100.0148 72.9175 C 99.9062 72.9175 99.8156 72.9131 99.743 72.9043 C 99.6705 72.8955 99.6127 72.8818 99.5695 72.8643 C 99.5265 72.8462 99.4971 72.8247 99.4813 72.7998 C 99.4654 72.7754 99.4573 72.7456 99.4573 72.71 L 99.4573 66.6729 C 99.4573 66.6372 99.4641 66.6074 99.4776 66.5825 C 99.4914 66.5576 99.5185 66.5356 99.5593 66.5156 C 99.6001 66.4956 99.6522 66.4819 99.7157 66.4756 C 99.7792 66.4688 99.8631 66.4648 99.9673 66.4648 C 100.0668 66.4648 100.1496 66.4688 100.2155 66.4756 C 100.2812 66.4819 100.3323 66.4956 100.3687 66.5156 C 100.4048 66.5356 100.4309 66.5576 100.4467 66.5825 C 100.4626 66.6074 100.4707 66.6372 100.4707 66.6729 L 100.4707 67.4717 C 100.8139 67.0903 101.1465 66.8115 101.4694 66.6343 C 101.7924 66.457 102.1185 66.3691 102.4482 66.3691 C 102.7009 66.3691 102.9279 66.3984 103.1288 66.4565 C 103.3297 66.5146 103.5067 66.5962 103.6603 66.7017 C 103.8138 66.8071 103.9449 66.9326 104.0532 67.0781 C 104.1614 67.2236 104.2517 67.3857 104.3239 67.5654 C 104.5266 67.3457 104.7191 67.1602 104.9013 67.0073 C 105.0834 66.855 105.259 66.7319 105.4278 66.6377 C 105.5965 66.5439 105.7609 66.4756 105.9206 66.4326 C 106.0804 66.3901 106.2415 66.3691 106.4035 66.3691 C 106.7953 66.3691 107.1235 66.4375 107.3893 66.5737 C 107.6548 66.71 107.8698 66.8926 108.034 67.1206 C 108.1981 67.3486 108.3152 67.6162 108.3849 67.9229 C 108.4548 68.2285 108.4897 68.5518 108.4897 68.8916 L 108.4897 72.7095 Z" fill="#6f7070"/>
		<path d="M 114.3351 69.1011 C 114.3486 68.519 114.2185 68.0625 113.9449 67.731 C 113.6711 67.3994 113.265 67.2344 112.7271 67.2344 C 112.451 67.2344 112.209 67.2852 112.0012 67.3887 C 111.7931 67.4912 111.619 67.6279 111.4788 67.7979 C 111.3383 67.9688 111.2298 68.166 111.153 68.3926 C 111.0761 68.6187 111.0331 68.8545 111.024 69.1011 L 114.3351 69.1011 ZM 115.4572 69.4277 C 115.4572 69.6025 115.413 69.7266 115.3251 69.8003 C 115.2368 69.874 115.1364 69.9111 115.0232 69.9111 L 111.024 69.9111 C 111.024 70.2471 111.0579 70.5488 111.1255 70.8179 C 111.1934 71.0864 111.3061 71.3174 111.4642 71.5098 C 111.6219 71.7021 111.8273 71.8501 112.08 71.9531 C 112.3329 72.0562 112.642 72.1074 113.0076 72.1074 C 113.2963 72.1074 113.5533 72.084 113.7792 72.0376 C 114.0049 71.9912 114.2001 71.939 114.3648 71.8809 C 114.5294 71.8232 114.6647 71.7715 114.7709 71.7246 C 114.8768 71.6777 114.9569 71.6548 115.0113 71.6548 C 115.0428 71.6548 115.0711 71.6621 115.0958 71.6777 C 115.1205 71.6934 115.1398 71.7168 115.1534 71.748 C 115.1669 71.7793 115.177 71.8223 115.1838 71.8779 C 115.1906 71.9331 115.194 72.001 115.194 72.0811 C 115.194 72.1387 115.1918 72.1885 115.1872 72.2305 C 115.1827 72.2725 115.1773 72.3105 115.1703 72.3438 C 115.1635 72.377 115.1523 72.4072 115.1367 72.4336 C 115.1208 72.4604 115.1005 72.4858 115.0759 72.5107 C 115.0511 72.5347 114.9779 72.5747 114.8562 72.6299 C 114.7347 72.6855 114.5774 72.7402 114.3839 72.793 C 114.1902 72.8467 113.9665 72.8945 113.7121 72.9365 C 113.4579 72.979 113.1865 73 112.8985 73 C 112.3987 73 111.9611 72.9307 111.5855 72.792 C 111.2098 72.6533 110.8935 72.4482 110.6369 72.1753 C 110.3803 71.9028 110.1868 71.5605 110.0562 71.1494 C 109.9256 70.7383 109.8605 70.2598 109.8605 69.7148 C 109.8605 69.1963 109.9279 68.7305 110.0633 68.3174 C 110.1985 67.9033 110.3934 67.5527 110.6479 67.2646 C 110.9025 66.9761 111.2101 66.7544 111.5707 66.6006 C 111.931 66.4463 112.3345 66.3691 112.7804 66.3691 C 113.258 66.3691 113.6647 66.4453 114.0005 66.5977 C 114.3362 66.749 114.6122 66.9541 114.8287 67.2109 C 115.0448 67.4678 115.2039 67.77 115.305 68.1167 C 115.4065 68.4629 115.4572 68.833 115.4572 69.2266 L 115.4572 69.4277 Z" fill="#6f7070"/>
		<path d="M 122.1322 72.7095 C 122.1322 72.7451 122.1231 72.7754 122.1052 72.7998 C 122.0869 72.8247 122.0576 72.8462 122.0167 72.8643 C 121.976 72.8818 121.9192 72.8955 121.8466 72.9043 C 121.774 72.9131 121.6834 72.9175 121.5748 72.9175 C 121.4613 72.9175 121.3681 72.9131 121.2959 72.9043 C 121.2233 72.8955 121.1666 72.8818 121.1256 72.8643 C 121.0849 72.8462 121.0555 72.8247 121.0371 72.7998 C 121.0193 72.7754 121.0101 72.7456 121.0101 72.71 L 121.0101 69.1748 C 121.0101 68.8301 120.9832 68.5527 120.9296 68.3428 C 120.8756 68.1328 120.7971 67.9517 120.6941 67.7998 C 120.5908 67.6475 120.4576 67.5313 120.2939 67.4512 C 120.1303 67.3701 119.9412 67.3301 119.726 67.3301 C 119.4482 67.3301 119.17 67.4287 118.8919 67.625 C 118.614 67.8223 118.3226 68.1104 118.0178 68.4907 L 118.0178 72.71 C 118.0178 72.7456 118.0089 72.7754 117.9907 72.7998 C 117.9724 72.8247 117.9431 72.8462 117.9023 72.8643 C 117.8614 72.8818 117.8047 72.8955 117.7324 72.9043 C 117.6598 72.9131 117.5666 72.9175 117.4532 72.9175 C 117.3444 72.9175 117.2539 72.9131 117.1813 72.9043 C 117.1087 72.8955 117.051 72.8818 117.0081 72.8643 C 116.9649 72.8462 116.9354 72.8247 116.9196 72.7998 C 116.9037 72.7754 116.8957 72.7456 116.8957 72.71 L 116.8957 66.6729 C 116.8957 66.6372 116.9027 66.6074 116.9163 66.5825 C 116.9297 66.5576 116.9568 66.5356 116.9976 66.5156 C 117.0385 66.4956 117.0908 66.4819 117.1543 66.4756 C 117.2177 66.4688 117.3015 66.4648 117.4059 66.4648 C 117.5055 66.4648 117.5882 66.4688 117.6538 66.4756 C 117.7196 66.4819 117.7706 66.4956 117.807 66.5156 C 117.8432 66.5356 117.8692 66.5576 117.8851 66.5825 C 117.9012 66.6074 117.909 66.6372 117.909 66.6729 L 117.909 67.4717 C 118.2509 67.0903 118.5917 66.8115 118.9312 66.6343 C 119.2707 66.457 119.6136 66.3691 119.9599 66.3691 C 120.3647 66.3691 120.7052 66.4375 120.9821 66.5737 C 121.2586 66.71 121.4824 66.8926 121.6534 67.1206 C 121.824 67.3486 121.9467 67.6162 122.021 67.9229 C 122.095 68.2285 122.1322 68.5967 122.1322 69.0259 L 122.1322 72.7095 Z" fill="#6f7070"/>
		<path d="M 126.9602 72.2607 C 126.9602 72.3906 126.951 72.4937 126.9331 72.5698 C 126.9152 72.6455 126.8881 72.7021 126.8522 72.7378 C 126.8161 72.7734 126.7621 72.8071 126.6901 72.8384 C 126.618 72.8696 126.5362 72.8955 126.4437 72.9155 C 126.3516 72.9355 126.2535 72.9521 126.15 72.9658 C 126.0467 72.9795 125.9432 72.9863 125.8396 72.9863 C 125.5248 72.9863 125.2548 72.9448 125.0298 72.8623 C 124.805 72.7798 124.6205 72.6553 124.4763 72.4873 C 124.3325 72.3208 124.2279 72.1084 124.1626 71.8525 C 124.0972 71.5957 124.0648 71.2935 124.0648 70.9458 L 124.0648 67.4258 L 123.2083 67.4258 C 123.1404 67.4258 123.086 67.3906 123.0451 67.3184 C 123.0046 67.2471 122.9841 67.1309 122.9841 66.9697 C 122.9841 66.8848 122.9897 66.813 123.0012 66.7549 C 123.0125 66.6963 123.0273 66.6484 123.0451 66.6104 C 123.0634 66.5723 123.087 66.5454 123.1165 66.5298 C 123.1461 66.5146 123.179 66.5068 123.2151 66.5068 L 124.0648 66.5068 L 124.0648 65.0732 C 124.0648 65.042 124.0726 65.0127 124.0886 64.9863 C 124.1044 64.959 124.1337 64.9355 124.1768 64.916 C 124.2201 64.896 124.2778 64.8813 124.3502 64.8721 C 124.4228 64.8633 124.5135 64.8594 124.6223 64.8594 C 124.7357 64.8594 124.8286 64.8633 124.9012 64.8721 C 124.9737 64.8813 125.0303 64.896 125.0714 64.916 C 125.1119 64.9355 125.1416 64.959 125.1595 64.9863 C 125.1778 65.0127 125.1869 65.042 125.1869 65.0732 L 125.1869 66.5068 L 126.7385 66.5068 C 126.7741 66.5068 126.8055 66.5146 126.8324 66.5298 C 126.8592 66.5454 126.8829 66.5723 126.903 66.6104 C 126.9232 66.6484 126.9379 66.6963 126.9466 66.7549 C 126.9555 66.813 126.9602 66.8848 126.9602 66.9697 C 126.9602 67.1309 126.9399 67.2471 126.8994 67.3184 C 126.8592 67.3906 126.8055 67.4258 126.7385 67.4258 L 125.1869 67.4258 L 125.1869 70.7822 C 125.1869 71.1963 125.2483 71.5098 125.3716 71.7217 C 125.4946 71.9331 125.7152 72.0391 126.0332 72.0391 C 126.1363 72.0391 126.228 72.0288 126.3087 72.0088 C 126.3894 71.9888 126.461 71.9678 126.5237 71.9453 C 126.5861 71.9229 126.6397 71.9014 126.6847 71.8813 C 126.7294 71.8613 126.7698 71.8511 126.8055 71.8511 C 126.8281 71.8511 126.8491 71.8569 126.8694 71.8682 C 126.8894 71.8789 126.9052 71.9004 126.9165 71.9316 C 126.9277 71.9629 126.9379 72.0059 126.9466 72.0596 C 126.9555 72.1128 126.9602 72.1802 126.9602 72.2607 Z" fill="#6f7070"/>
	</g>
</svg>