<?xml version="1.0" encoding="UTF-8" standalone="no" ?>
<!DOCTYPE svg PUBLIC "-//W3C//DTD SVG 1.1//EN" "http://www.w3.org/Graphics/SVG/1.1/DTD/svg11.dtd">
<svg xmlns="http://www.w3.org/2000/svg" xmlns:xlink="http://www.w3.org/1999/xlink" version="1.1" width="1280" height="1024" viewBox="0 0 1280 1024" xml:space="preserve">
<desc>Created with Fabric.js 5.3.0</desc>
<defs>
</defs>
<g transform="matrix(1 0 0 1 640 512)" id="background-logo"  >
<rect style="stroke: none; stroke-width: 0; stroke-dasharray: none; stroke-linecap: butt; stroke-dashoffset: 0; stroke-linejoin: miter; stroke-miterlimit: 4; fill: rgb(255,255,255); fill-opacity: 0; fill-rule: nonzero; opacity: 1;"  paint-order="stroke"  x="-640" y="-512" rx="0" ry="0" width="1280" height="1024" />
</g>
<g transform="matrix(1.9211538461538462 0 0 1.9211538461538462 640 381.4798704627785)" id="logo-logo"  >
<g style=""  paint-order="stroke"   >
		<g transform="matrix(4.80428756787251 0 0 -4.80428756787251 0 0)"  >
<path style="stroke: none; stroke-width: 1; stroke-dasharray: none; stroke-linecap: butt; stroke-dashoffset: 0; stroke-linejoin: miter; stroke-miterlimit: 4; fill: rgb(206,220,225); fill-rule: nonzero; opacity: 1;"  paint-order="stroke"  transform=" translate(14.024500000000003, 18.311999999999998)" d="M 0 0 C -0.322 0.234 -0.65 0.46 -0.984 0.68 C -4.729 3.144 -8.649 5.385 -12.462 7.747 L 8.36 -18.317 C 8.84 -18.918 8.933 -19.740000000000002 8.6 -20.433 C 8.267 -21.125 7.566 -21.566 6.797 -21.566 L 6.086 -21.566 C 5.311 -31.994 -3.401 -40.248999999999995 -14.024 -40.248999999999995 C -24.648 -40.248999999999995 -33.36 -31.993999999999993 -34.134 -21.565999999999995 L -34.846000000000004 -21.565999999999995 C -35.615 -21.565999999999995 -36.315000000000005 -21.124999999999996 -36.648 -20.432999999999996 C -36.981 -19.739999999999995 -36.889 -18.917999999999996 -36.409000000000006 -18.316999999999997 C -36.409000000000006 -18.316999999999997 -15.588000000000005 7.746000000000002 -15.588000000000005 7.747000000000003 C -17.730000000000004 6.4200000000000035 -19.873000000000005 5.0930000000000035 -22.014000000000003 3.7650000000000032 C -25.723000000000003 1.4650000000000034 -29.594 -0.6509999999999971 -32.49 -3.995999999999997 C -35.173 -7.094999999999997 -37.056000000000004 -10.860999999999997 -37.907000000000004 -14.871999999999996 C -38.261 -16.542999999999996 -38.438 -18.249999999999996 -38.438 -19.958 C -38.438 -33.441 -27.508000000000003 -44.370999999999995 -14.024000000000001 -44.370999999999995 C -0.5410000000000004 -44.370999999999995 10.389 -33.440999999999995 10.389 -19.957999999999995 C 10.389 -11.946 6.402 -4.642 0 0" stroke-linecap="round" />
</g>
		<g transform="matrix(4.80428756787251 0 0 -4.80428756787251 1.1368684e-13 -2.208530994950877)"  >
<path style="stroke: none; stroke-width: 1; stroke-dasharray: none; stroke-linecap: butt; stroke-dashoffset: 0; stroke-linejoin: miter; stroke-miterlimit: 4; fill: rgb(206,220,225); fill-rule: nonzero; opacity: 1;"  paint-order="stroke"  transform=" translate(0, -9.328500000000002)" d="M 0 0 C -3.624 0 -6.561 2.938 -6.561 6.561 C -6.561 10.185 0 24.896 0 24.896 C 0 24.896 6.561 10.185 6.561 6.561 C 6.561 2.938 3.624 0 0 0 M 10.499 6.759 L 10.499 7.615 C 10.499 8.719000000000001 11.394 9.615 12.499 9.615 L 16.664 9.615 L 0 30.475 L -16.664 9.615 L -12.498000000000001 9.615 C -11.394000000000002 9.615 -10.498000000000001 8.719 -10.498000000000001 7.615 L -10.498000000000001 6.759 C -10.498000000000001 1.8920000000000003 -7.165000000000001 -2.1999999999999993 -2.6640000000000015 -3.382999999999999 L -2.6640000000000015 -2.9699999999999993 C -2.6640000000000015 -2.749999999999999 -2.4860000000000015 -2.571999999999999 -2.2660000000000013 -2.571999999999999 L -1.0500000000000014 -2.571999999999999 C -1.0190000000000015 -2.571999999999999 -0.9910000000000014 -2.5829999999999993 -0.9620000000000014 -2.589999999999999 C -0.7860000000000014 -2.629999999999999 -0.6510000000000014 -2.780999999999999 -0.6510000000000014 -2.969999999999999 L -0.6510000000000014 -7.998999999999999 C -0.6510000000000014 -8.187999999999999 -0.7860000000000014 -8.338999999999999 -0.9620000000000013 -8.379 C -0.9910000000000013 -8.386 -1.0190000000000012 -8.397 -1.0500000000000014 -8.397 L -2.2660000000000013 -8.397 C -2.4860000000000015 -8.397 -2.6640000000000015 -8.219 -2.6640000000000015 -7.9990000000000006 L -2.6640000000000015 -7.488 C -9.024000000000001 -6.3020000000000005 -13.939000000000002 -0.9540000000000006 -14.453000000000001 5.614999999999999 L -18.86 5.614999999999999 C -18.089 -4.124000000000001 -9.934 -11.818000000000001 0 -11.818000000000001 C 9.934 -11.818000000000001 18.089 -4.124000000000001 18.86 5.614999999999998 L 14.454 5.614999999999998 C 13.939 -0.954 9.024 -6.302 2.664 -7.488 L 2.664 -7.9990000000000006 C 2.664 -8.219000000000001 2.486 -8.397 2.266 -8.397 L 1.05 -8.397 C 0.99 -8.397 0.935 -8.382 0.884 -8.359 C 0.747 -8.296 0.651 -8.159 0.651 -7.999 L 0.651 -2.9699999999999998 C 0.651 -2.8099999999999996 0.747 -2.6729999999999996 0.884 -2.61 C 0.935 -2.5869999999999997 0.99 -2.572 1.05 -2.572 L 2.266 -2.572 C 2.486 -2.572 2.664 -2.75 2.664 -2.97 L 2.664 -3.383 C 7.165000000000001 -2.2 10.499 1.8920000000000003 10.499 6.7589999999999995" stroke-linecap="round" />
</g>
		<g transform="matrix(4.80428756787251 0 0 -4.80428756787251 0.00048042875687315245 -5.947227580269498)"  >
<path style="stroke: none; stroke-width: 1; stroke-dasharray: none; stroke-linecap: butt; stroke-dashoffset: 0; stroke-linejoin: miter; stroke-miterlimit: 4; fill: rgb(206,220,225); fill-rule: nonzero; opacity: 1;"  paint-order="stroke"  transform=" translate(-3.561, -3.5454999999999997)" d="M 0 0 C 0 -1.963 1.598 -3.561 3.561 -3.561 C 5.524 -3.561 7.122 -1.9629999999999999 7.122 0 C 7.122 1.241 5.545 5.735 3.561 10.652 C 1.577 5.735 0 1.241 0 0" stroke-linecap="round" />
</g>
</g>
</g>
<g transform="matrix(1.9211538461538462 0 0 1.9211538461538462 643.2016028846153 731.0653858385247)" id="text-logo"  >
<g style=""  paint-order="stroke"   >
		<g transform="matrix(1 0 0 1 0 0)" id="text-logo-path-0"  >
<path style="stroke: none; stroke-width: 0; stroke-dasharray: none; stroke-linecap: butt; stroke-dashoffset: 0; stroke-linejoin: miter; stroke-miterlimit: 4; fill: rgb(206,220,225); fill-rule: nonzero; opacity: 1;"  paint-order="stroke"  transform=" translate(-272.02, 22.54)" d="M 33.2 -45.14 L 33.2 -28.31 L 15.11 -28.31 L 15.11 -45.14 L 4.09 -45.14 L 4.09 0 L 15.11 0 L 15.11 -17.89 L 33.2 -17.89 L 33.2 0 L 44.15 0 L 44.15 -45.14 Z M 52.34 -45.14 L 52.34 0 L 63.36 0 L 63.36 -45.14 Z M 90.82 -45.14 L 71.54 -45.14 L 71.54 0 L 90.82 0 C 103.69 0 113.98 -9.5 113.98 -22.37 C 113.98 -35.18 103.69 -45.14 90.82 -45.14 Z M 82.57 -10.36 L 82.57 -34.72 L 90.82 -34.72 C 97.61 -34.72 103.03 -29.24 103.03 -22.51 C 103.03 -15.71 97.48 -10.36 90.82 -10.36 Z M 136.49 -14.52 L 144.61 0 L 157.15 0 L 147.71 -17.03 C 152.06 -19.87 154.57 -24.68 154.57 -29.83 C 154.57 -38.35 147.77 -45.14 139.33 -45.14 L 120.19 -45.14 L 120.19 0 L 131.21 0 L 131.21 -14.52 Z M 131.21 -24.95 L 131.21 -34.72 L 139.33 -34.72 C 142.1 -34.72 144.21 -32.6 144.21 -29.83 C 144.21 -27.19 141.97 -24.95 139.33 -24.95 Z M 181.04 0.92 C 193.97 0.92 204.27 -9.57 204.27 -22.37 C 204.27 -35.38 193.91 -45.61 181.04 -45.61 C 168.1 -45.61 157.74 -35.18 157.74 -22.37 C 157.74 -9.64 168.17 0.92 181.04 0.92 Z M 168.7 -22.37 C 168.7 -29.11 174.37 -34.65 181.04 -34.65 C 187.84 -34.65 193.25 -29.11 193.25 -22.37 C 193.25 -15.64 187.84 -10.1 181.04 -10.1 C 174.31 -10.1 168.7 -15.71 168.7 -22.37 Z M 225.72 -45.14 L 208.49 -45.14 L 208.49 0 L 219.45 0 L 219.45 -14.52 L 225.72 -14.52 C 234.23 -14.52 241.1 -21.38 241.1 -29.83 C 241.1 -38.28 234.23 -45.14 225.72 -45.14 Z M 219.45 -24.95 L 219.45 -34.72 L 225.72 -34.72 C 228.56 -34.72 230.6 -32.67 230.6 -29.83 C 230.6 -27.06 228.49 -24.95 225.72 -24.95 Z M 265.98 0.92 C 278.92 0.92 289.21 -9.57 289.21 -22.37 C 289.21 -35.38 278.85 -45.61 265.98 -45.61 C 253.04 -45.61 242.68 -35.18 242.68 -22.37 C 242.68 -9.64 253.11 0.92 265.98 0.92 Z M 253.64 -22.37 C 253.64 -29.11 259.31 -34.65 265.98 -34.65 C 272.78 -34.65 278.19 -29.11 278.19 -22.37 C 278.19 -15.64 272.78 -10.1 265.98 -10.1 C 259.25 -10.1 253.64 -15.71 253.64 -22.37 Z M 307.36 -10.36 L 324.06 -37.09 L 324.06 -45.14 L 293.63 -45.14 L 293.63 -34.72 L 310.27 -34.72 L 293.57 -7.99 L 293.57 0 L 324.13 0 L 324.13 -10.36 Z M 351.25 0.92 C 364.19 0.92 374.48 -9.57 374.48 -22.37 C 374.48 -35.38 364.12 -45.61 351.25 -45.61 C 338.32 -45.61 327.95 -35.18 327.95 -22.37 C 327.95 -9.64 338.38 0.92 351.25 0.92 Z M 338.91 -22.37 C 338.91 -29.11 344.59 -34.65 351.25 -34.65 C 358.05 -34.65 363.46 -29.11 363.46 -22.37 C 363.46 -15.64 358.05 -10.1 351.25 -10.1 C 344.52 -10.1 338.91 -15.71 338.91 -22.37 Z M 412.7 0.92 C 421.08 0.92 429.2 -3.76 429.2 -12.8 C 429.2 -21.71 422.2 -25.41 414.61 -27.72 C 412.57 -28.38 411.05 -28.97 410.06 -29.44 C 408.67 -30.1 407.68 -30.82 407.68 -32.47 C 407.68 -34.39 410.12 -35.11 411.64 -35.11 C 415.21 -35.11 416.99 -33.53 418.51 -30.43 L 427.88 -35.9 C 424.64 -42.57 419.03 -46 411.64 -46 C 403.59 -46 396.73 -40.79 396.73 -32.47 C 396.73 -23.96 402.8 -20.59 410.12 -18.41 C 412.43 -17.75 414.08 -17.16 415.21 -16.7 C 416.72 -16.1 418.24 -15.31 418.24 -13.46 C 418.24 -11.02 414.94 -9.83 412.96 -9.83 C 408.67 -9.83 405.7 -11.48 404.05 -15.58 L 394.81 -10.16 C 397.78 -2.57 404.78 0.92 412.7 0.92 Z M 433.42 -4.62 C 433.42 -1.12 435.34 0.86 438.83 0.86 C 442.33 0.86 444.18 -1.19 444.18 -4.62 C 444.18 -8.12 442.33 -10.03 438.83 -10.03 C 435.34 -10.03 433.42 -8.12 433.42 -4.62 Z M 468.01 -14.52 L 476.12 0 L 488.66 0 L 479.23 -17.03 C 483.58 -19.87 486.09 -24.68 486.09 -29.83 C 486.09 -38.35 479.29 -45.14 470.84 -45.14 L 451.7 -45.14 L 451.7 0 L 462.73 0 L 462.73 -14.52 Z M 462.73 -24.95 L 462.73 -34.72 L 470.84 -34.72 C 473.62 -34.72 475.73 -32.6 475.73 -29.83 C 475.73 -27.19 473.48 -24.95 470.84 -24.95 Z M 493.15 -4.62 C 493.15 -1.12 495.07 0.86 498.56 0.86 C 502.06 0.86 503.91 -1.19 503.91 -4.62 C 503.91 -8.12 502.06 -10.03 498.56 -10.03 C 495.07 -10.03 493.15 -8.12 493.15 -4.62 Z M 522.46 -10.36 L 522.46 -45.14 L 511.43 -45.14 L 511.43 0 L 539.95 0 L 539.95 -10.36 Z" stroke-linecap="round" />
</g>
</g>
</g>
<g transform="matrix(1 0 0 1 325 442.99247928024624)" id="tagline-dc7a726f-67d1-4a4a-83a1-b587643694ff-logo"  >
<g style=""  paint-order="stroke"   >
		<g transform="matrix(1 0 0 1 0 0)" id="tagline-dc7a726f-67d1-4a4a-83a1-b587643694ff-logo-path-0"  >
<path style="stroke: none; stroke-width: 0; stroke-dasharray: none; stroke-linecap: butt; stroke-dashoffset: 0; stroke-linejoin: miter; stroke-miterlimit: 4; fill: rgb(206,220,225); fill-rule: nonzero; opacity: 1;"  paint-order="stroke"  transform=" translate(0, 0)" d="" stroke-linecap="round" />
</g>
</g>
</g>
</svg>