<svg xmlns="http://www.w3.org/2000/svg" id="Capa_2" data-name="Capa 2" viewBox="0 0 243.66 176.65"><defs><style>      .cls-1 {        fill: #d9001d;      }      .cls-1, .cls-2 {        fill-rule: evenodd;      }      .cls-2, .cls-3 {        fill: #686058;      }    </style></defs><g id="Layer_1" data-name="Layer 1"><g><g><path class="cls-2" d="M121.5,171.12c-2.06-.07-2.84.83-2.84,2.75s1.25,2.78,3.22,2.78h3.23c2.73,0,3.8-.91,3.8-2.78,0-1.14-.3-1.99-.74-2.71h-4.78v2.76h1.09v-1.63h2.94c.19.23.44.77.44,1.58,0,1.07-.55,1.63-2.7,1.63h-3.33c-2.06,0-2.13-1.28-2.13-1.63,0-1.14.63-1.57,1.79-1.57v-1.18Z"></path><path class="cls-2" d="M119.96,132.34v-1.7c0-.87.79-1.19,1.5-1.19.86,0,1.64.39,1.64,1.2v1.69h-3.14ZM124.19,131.02c0-.38.05-1.25,1.25-1.34,1.31-.1,2.59-.02,3.27-.34v-1.18c-.61.17-2.15.29-2.58.31-1.98.06-2.36.43-2.54,1.45h-.03c-.2-1.04-1.09-1.62-2.25-1.62-1.23,0-2.45.55-2.45,2.12v3.05h9.84v-1.13h-4.53v-1.32Z"></path><path class="cls-2" d="M125.12,91.07c2.73,0,3.8-.91,3.8-2.78s-1.08-2.78-3.8-2.78h-6.24v1.13h6.3c2.15,0,2.7.59,2.7,1.66s-.55,1.66-2.7,1.66h-6.3v1.13h6.24Z"></path><path class="cls-2" d="M119.96,46.67v-1.56c0-.25.15-1.25,1.65-1.25s1.68,1.1,1.68,1.57v1.24h-3.33ZM128.71,46.67h-4.33v-1.48c0-.91-.46-2.48-2.7-2.48s-2.81,1.28-2.81,2.47v2.63h9.84v-1.13Z"></path><path class="cls-2" d="M128.92,2.78c0-1.88-1.08-2.78-3.8-2.78h-3.23c-1.96,0-3.22.91-3.22,2.78s1.25,2.78,3.22,2.78h3.23c2.73,0,3.8-.91,3.8-2.78ZM127.87,2.78c0,1.07-.55,1.63-2.7,1.63h-3.33c-2.06,0-2.13-1.28-2.13-1.63s.07-1.63,2.13-1.63h3.33c2.15,0,2.7.56,2.7,1.63Z"></path></g><g><path class="cls-2" d="M200.5,52.43c18.31,3.21,26.85,37.85,2.78,26.57-6.53-3.1-8.27-27.53-2.78-26.57Z"></path><path class="cls-3" d="M191.69,41.96c-1.94,3.37-8.02,3.37-9.97,0-1.94-3.37,3.66-8.62,4.98-8.63,1.7-.01,6.92,5.26,4.98,8.63Z"></path><path class="cls-2" d="M174.48,53.02c-18.31,3.21-26.85,37.85-2.78,26.57,6.53-3.1,8.27-27.53,2.78-26.57Z"></path><path class="cls-3" d="M194.91,49.29c-2.4-3.49-12.84-3.49-15.46,0-3.63,4.82,5.44,14.88,7.73,14.96,1.95.07,11.15-10,7.73-14.96Z"></path><path class="cls-2" d="M177.22,73.28c0-.78,4.67-1.41,10.44-1.41s10.44.63,10.44,1.41-4.67,1.41-10.44,1.41-10.44-.63-10.44-1.41Z"></path><path class="cls-2" d="M179.69,67.93c0-.79,3.45-1.43,7.7-1.43s7.7.64,7.7,1.43-3.45,1.43-7.7,1.43-7.7-.64-7.7-1.43Z"></path><path class="cls-2" d="M178.2,78.91c0-.75,4.29-1.36,9.58-1.36s9.58.61,9.58,1.36-4.29,1.36-9.58,1.36-9.58-.61-9.58-1.36Z"></path><path class="cls-2" d="M180.97,84.32c0-.75,2.79-1.36,6.23-1.36s6.23.61,6.23,1.36-2.79,1.36-6.23,1.36-6.23-.61-6.23-1.36Z"></path><path class="cls-2" d="M183.85,89.35c0-.55,1.39-.99,3.11-.99s3.11.44,3.11.99-1.39.99-3.11.99-3.11-.44-3.11-.99Z"></path></g><g><g><polygon class="cls-2" points="13.3 127.57 5.37 118.4 0 118.4 0 143.13 6.16 143.13 6.16 127.68 12.83 135.44 13.78 135.44 20.45 127.68 20.45 143.13 26.61 143.13 26.61 118.4 21.24 118.4 13.3 127.57"></polygon><path class="cls-2" d="M64.67,118.4h-7.14l-9.97,24.72h6.53l1.85-4.89h11.06l2.03,4.89h6.63l-10.98-24.72ZM65.18,133.92h-7.61l3.63-9.61,3.99,9.61Z"></path><polygon class="cls-2" points="115.48 138.59 102.79 138.59 102.79 118.4 96.63 118.4 96.63 143.13 115.48 143.13 115.48 138.59"></polygon><polygon class="cls-2" points="155.9 138.59 143.22 138.59 143.22 118.4 137.05 118.4 137.05 143.13 155.9 143.13 155.9 138.59"></polygon><polygon class="cls-1" points="195.78 138.59 183.71 138.59 183.71 132.65 194.98 132.65 194.98 128.12 183.71 128.12 183.71 122.93 195.53 122.93 195.53 118.4 177.55 118.4 177.55 143.13 195.78 143.13 195.78 138.59"></polygon><polygon class="cls-2" points="243.66 118.4 237.5 118.4 237.5 133.52 224.31 118.4 218.65 118.4 218.65 143.13 224.81 143.13 224.81 127.28 238.48 143.13 243.66 143.13 243.66 118.4"></polygon></g><polygon class="cls-1" points="195.55 114.15 195.55 109.61 177.54 109.61 177.52 114.15 195.55 114.15"></polygon></g></g></g></svg>